<svg width="86" height="38" viewBox="0 0 86 38" fill="none" xmlns="http://www.w3.org/2000/svg">
<g clip-path="url(#clip0_127_6968)">
<mask id="mask0_127_6968" style="mask-type:luminance" maskUnits="userSpaceOnUse" x="0" y="0" width="86" height="38">
<path d="M0 0H86V38H0V0Z" fill="white"/>
</mask>
<g mask="url(#mask0_127_6968)">
<path d="M85.9723 37.9593C85.8912 37.9593 85.8211 37.9593 85.762 37.9593C57.254 37.9593 28.7571 37.9593 0.271176 37.9593C0.190009 37.9593 0.11991 37.9593 0.06088 37.9593C0.042433 37.936 0.023986 37.9244 0.00553894 37.9244V36.8362C0.0830164 36.8362 0.160494 36.8362 0.237971 36.8362H85.762C85.8432 36.8362 85.9225 36.8362 86 36.8362V37.9244C85.9816 37.9244 85.9723 37.936 85.9723 37.9593Z" fill="#29BDEF"/>
<path fill-rule="evenodd" clip-rule="evenodd" d="M0.00553894 37.9243C0.023986 37.9243 0.042433 37.936 0.06088 37.9592C0.042433 37.9592 0.023986 37.9592 0.00553894 37.9592V37.9243ZM85.9723 37.9534C85.9723 37.9534 85.9816 37.9437 86 37.9243V37.9534C85.9816 37.9534 85.9723 37.9534 85.9723 37.9534Z" fill="#83C8EB"/>
<path fill-rule="evenodd" clip-rule="evenodd" d="M3.5529 27.5136C3.96611 27.5136 4.3701 27.5136 4.76487 27.5136C4.88108 27.5136 5.00283 27.4845 5.09138 27.4845C5.25002 27.4845 5.3976 27.4845 5.53411 27.4845C5.94732 27.4845 6.35131 27.4845 6.74608 27.4845C6.80511 27.4845 6.86414 27.4845 6.92317 27.4845C6.98404 27.4845 7.07259 27.4205 7.07259 27.3565C7.07259 27.2944 7.08181 27.2421 7.10026 27.1994C7.10026 27.0985 7.09104 27.0054 7.07259 26.9201C7.07259 26.7959 7.07259 26.6834 7.07259 26.5825C7.07259 23.6574 7.07259 20.7341 7.07259 17.8129C7.07259 15.4502 7.07259 13.0876 7.07259 10.725C7.07259 10.6028 7.07259 10.4805 7.10026 10.3525C7.10026 10.3331 7.10026 10.3234 7.10026 10.3234C7.10026 9.92189 7.16113 9.54946 7.22201 9.17121C7.34007 8.50781 7.50609 7.86574 7.72008 7.24502C7.93775 6.6049 8.21446 5.98417 8.55019 5.38284C8.80476 4.92506 9.09992 4.48861 9.43565 4.0735C9.71236 3.70107 10.0186 3.35967 10.3543 3.04931C10.8266 2.5954 11.3283 2.20163 11.8596 1.86799C12.0994 1.70117 12.3466 1.55569 12.6012 1.43154C12.9553 1.24533 13.3298 1.07075 13.7246 0.907806C14.1968 0.721589 14.6894 0.564468 15.2022 0.436443C15.5195 0.354973 15.8349 0.283202 16.1485 0.22113C16.4252 0.178455 16.6927 0.13772 16.951 0.0989244C17.2055 0.0562495 17.4509 0.0349121 17.687 0.0349121C20.5278 0.0349121 23.3668 0.0349121 26.204 0.0349121C26.2446 0.0349121 26.2852 0.0349121 26.3257 0.0349121C26.5028 0.0349121 26.5305 0.0349121 26.6467 0.157117C26.6873 0.180394 26.7076 0.211431 26.7076 0.250226C26.7076 0.335576 26.7076 0.409287 26.7076 0.471359C26.7076 9.15375 26.7076 17.8361 26.7076 26.5185C26.7076 29.048 26.7076 31.5658 26.7076 34.072C26.7076 34.134 26.7076 34.1961 26.7076 34.2582C26.7076 34.3513 26.6467 34.4153 26.5914 34.4153C26.5692 34.4153 26.5489 34.4153 26.5305 34.4153C26.4899 34.4153 26.4512 34.4153 26.4143 34.4153C24.481 34.4153 22.5386 34.4153 20.5869 34.4153C20.5278 34.4153 20.4688 34.4153 20.4098 34.4153C20.3876 34.4153 20.3674 34.4037 20.3489 34.3804C20.3305 34.361 20.3212 34.3416 20.3212 34.3222C20.2991 34.2989 20.288 34.2776 20.288 34.2582C20.288 34.1146 20.288 33.9808 20.288 33.8567C20.288 33.6995 20.288 33.5715 20.288 33.4202C20.288 33.3775 20.288 33.3465 20.288 33.3271C20.2696 32.1865 20.2604 31.0459 20.2604 29.9054C20.2604 29.4708 20.2604 29.0363 20.2604 28.6018C20.2604 28.5786 20.2604 28.5572 20.2604 28.5378C20.2327 28.1654 20.2604 27.7929 20.2327 27.4205C20.2327 27.2964 20.2327 27.1722 20.2327 27.0481C20.2327 26.9841 20.1995 26.9201 20.1109 26.9201C20.074 26.9201 20.0353 26.9201 19.9947 26.9201C19.4229 26.9201 18.8418 26.9201 18.2515 26.9201C17.8161 26.9433 17.3716 26.955 16.9178 26.955C16.5045 26.955 16.0803 26.955 15.6449 26.955C15.6265 26.955 15.608 26.955 15.5896 26.955C15.3239 26.9841 15.0583 26.955 14.8203 26.955C14.5621 26.9744 14.3149 26.9841 14.0788 26.9841C14.0419 26.9841 14.0031 26.9841 13.9625 26.9841C13.9017 26.9841 13.8463 27.0481 13.8463 27.1063C13.8463 27.1489 13.8463 27.18 13.8463 27.1994C13.8463 27.9055 13.8463 28.6115 13.8463 29.3176C13.8463 29.3991 13.8353 29.4805 13.8131 29.562C13.8131 29.6241 13.8131 29.6862 13.8131 29.7482C13.8131 30.2681 13.8131 30.7879 13.8131 31.3078C13.8131 31.3699 13.8131 31.4319 13.8131 31.494C13.7855 31.5231 13.7855 31.5522 13.7855 31.5871C13.7855 31.8742 13.7855 32.1535 13.7855 32.4251C13.7855 32.4445 13.7855 32.4658 13.7855 32.4891C13.7855 32.5085 13.7947 32.5279 13.8131 32.5473C13.8131 33.0672 13.8039 33.5967 13.7855 34.136C13.7855 34.1554 13.7855 34.1748 13.7855 34.1942C13.7855 34.3222 13.7855 34.3222 13.6637 34.3804C13.6453 34.4037 13.6268 34.4153 13.6084 34.4153C13.5678 34.4153 13.5272 34.4153 13.4866 34.4153C9.25118 34.4153 5.02312 34.4153 0.802448 34.4153C0.761864 34.4153 0.723125 34.4153 0.686231 34.4153C0.627201 34.4153 0.586617 34.394 0.564481 34.3513C0.546034 34.3319 0.536811 34.3106 0.536811 34.2873C0.518364 34.2485 0.50914 34.1981 0.50914 34.136C0.50914 33.7829 0.50914 33.4202 0.50914 33.0478C0.50914 31.3485 0.50914 29.6377 0.50914 27.9152C0.50914 27.8531 0.50914 27.8026 0.50914 27.7639C0.536811 27.6707 0.564481 27.6358 0.597686 27.5776C0.616133 27.5544 0.63458 27.5427 0.653027 27.5427C0.69361 27.5427 0.734194 27.5427 0.774777 27.5427C1.16585 27.5427 1.55878 27.5427 1.95354 27.5427C2.01257 27.5427 2.0716 27.5427 2.13063 27.5427C2.17122 27.5233 2.2118 27.5136 2.25238 27.5136C2.58812 27.5136 2.92201 27.5136 3.25406 27.5136L3.28726 27.5427C3.36474 27.5427 3.44406 27.5427 3.52523 27.5427L3.5529 27.5136ZM20.1718 13.4658C20.1718 12.8218 20.1718 12.1798 20.1718 11.5397C20.1718 11.4349 20.1607 11.3418 20.1386 11.2603C20.1386 11.1362 20.1386 11.012 20.1386 10.8879C20.1386 9.84818 20.1386 8.81041 20.1386 7.77457C20.1386 7.56896 20.1386 7.36334 20.1386 7.15773C20.1386 7.11505 20.1202 7.07238 20.0833 7.02971C20.0501 6.97151 19.9947 6.9366 19.9062 6.97151C19.884 6.97151 19.8545 6.97151 19.8176 6.97151C19.0465 6.94824 18.2773 6.9366 17.5099 6.9366C17.2111 6.9366 16.9178 6.97151 16.6521 6.9366C16.63 6.9366 16.6005 6.9366 16.5636 6.9366C16.464 6.9366 16.3551 6.9366 16.2371 6.9366C16.178 6.9172 16.1098 6.92884 16.0323 6.97151C15.597 7.11505 15.2114 7.35171 14.8757 7.68147C14.717 7.84829 14.5787 8.03644 14.4606 8.24594C14.1673 8.64747 13.9625 9.14211 13.8408 9.64257C13.8002 9.76671 13.791 9.89086 13.8131 10.015C13.8131 10.5349 13.8131 11.0625 13.8131 11.5979C13.791 12.1992 13.7799 12.8121 13.7799 13.4367C13.7799 13.5182 13.7799 13.59 13.7799 13.6521C13.7799 13.7335 13.7799 13.8053 13.7799 13.8674C13.7799 14.4066 13.7799 14.9556 13.7799 15.5142C13.7799 16.8837 13.7799 18.2629 13.7799 19.6518C13.7615 19.6944 13.7615 19.7352 13.7799 19.774C13.7799 19.7972 13.791 19.8186 13.8131 19.838C13.8316 19.9 13.8703 19.9311 13.9293 19.9311C13.9699 19.9311 14.0197 19.9311 14.0788 19.9311C14.7687 19.9311 15.4586 19.9311 16.1485 19.9311C16.1891 19.9311 16.2278 19.9311 16.2647 19.9311C16.3865 19.902 16.475 19.902 16.5912 19.902C17.0856 19.902 17.5782 19.902 18.0689 19.902C18.6813 19.902 19.303 19.902 19.9338 19.902C19.9523 19.902 19.9818 19.902 20.0224 19.902C20.0408 19.902 20.0501 19.902 20.0501 19.902C20.1386 19.8671 20.1718 19.838 20.1718 19.774C20.1718 19.7119 20.1718 19.6498 20.1718 19.5877C20.1718 17.5587 20.1718 15.5181 20.1718 13.4658ZM45.2468 25.6165C44.9203 25.6165 44.9535 25.6805 44.9535 25.3372C44.9535 17.0079 44.9535 8.66687 44.9535 0.314238C44.9535 0.252166 44.9535 0.180394 44.9535 0.0989244C44.9535 0.0698279 44.9812 0.0349121 45.0089 0.0349121C45.031 0.0349121 45.0513 0.0349121 45.0698 0.0349121C45.1288 0.0349121 45.1786 0.0349121 45.2192 0.0349121C58.4272 0.0349121 71.6353 0.0349121 84.8434 0.0349121C84.9024 0.0349121 84.9725 0.0349121 85.0537 0.0349121C85.0906 0.0349121 85.109 0.0562495 85.109 0.0989244C85.109 0.118322 85.109 0.149358 85.109 0.192033C85.109 0.234708 85.109 0.287082 85.109 0.349154C85.109 8.6785 85.109 17.0195 85.109 25.3721C85.109 25.4342 85.109 25.4963 85.109 25.5583C85.109 25.5874 85.0813 25.6165 85.0537 25.6165C84.9946 25.6165 84.9356 25.6165 84.8766 25.6165C84.1461 25.6165 83.4156 25.6165 82.6851 25.6165C76.0829 25.6165 51.8324 25.6165 45.2468 25.6165ZM58.2907 25.0288C59.0987 25.0288 59.9067 25.0288 60.7147 25.0288C60.7331 25.0288 60.7626 25.0288 60.8032 25.0288C60.8622 25.0482 60.9213 25.0579 60.9803 25.0579C61.257 25.0579 61.5337 25.0579 61.8104 25.0579C62.4598 25.0579 63.1091 25.0579 63.7584 25.0579C63.7916 25.0579 63.8193 25.0928 63.8193 25.0928C64.0148 25.0928 64.2214 25.0928 64.4391 25.0928C64.4391 25.0928 64.4668 25.0579 64.5 25.0579C64.5184 25.0579 64.548 25.0579 64.5885 25.0579C65.2969 25.0579 66.0163 25.0579 66.7468 25.0579C66.8963 25.0579 67.0401 25.0928 67.1896 25.0928C67.4478 25.0928 67.7135 25.0928 67.9865 25.0928C68.6395 25.0928 69.2999 25.0928 69.9677 25.0928C69.9677 25.1219 70.0009 25.1219 70.0286 25.1219C70.2278 25.1219 70.4252 25.1219 70.6207 25.1219C70.6484 25.1219 70.6484 25.1219 70.6816 25.0928C70.7185 25.0928 70.7572 25.0928 70.7978 25.0928C71.5062 25.0928 72.2164 25.0928 72.9284 25.0928C73.0723 25.0928 73.2217 25.1219 73.3712 25.1219C73.6479 25.1219 73.9135 25.1219 74.1681 25.1219C74.8395 25.1219 75.511 25.1219 76.1825 25.1219C76.2102 25.151 76.2378 25.151 76.2378 25.151C76.4371 25.151 76.6252 25.151 76.8023 25.151C76.83 25.151 76.8577 25.151 76.8577 25.1219C76.8798 25.1219 76.9001 25.1219 76.9185 25.1219C77.7081 25.1413 78.4976 25.151 79.2871 25.151C79.324 25.151 79.3535 25.151 79.3757 25.151C79.4642 25.151 79.5528 25.151 79.6413 25.151C80.6264 25.151 81.6022 25.1626 82.5688 25.1859C83.1407 25.1859 83.7126 25.1859 84.2844 25.1859C84.3435 25.1859 84.3914 25.1859 84.4283 25.1859C84.4689 25.1626 84.4892 25.1316 84.4892 25.0928C84.4892 25.0501 84.4892 24.9977 84.4892 24.9357C84.4892 16.7925 84.4892 8.65911 84.4892 0.535371C84.4892 0.492697 84.4892 0.450022 84.4892 0.407347C84.4892 0.387949 84.4892 0.368552 84.4892 0.349154C84.4892 0.314238 84.4615 0.314238 84.4615 0.314238C84.4394 0.314238 84.4191 0.325877 84.4006 0.349154C84.2051 0.473299 84.0188 0.587745 83.8417 0.692492C83.2883 1.04165 82.7459 1.38305 82.2147 1.71669C81.7018 2.04645 81.189 2.36651 80.6762 2.67687C80.0637 3.07258 79.4624 3.45666 78.8721 3.82909C78.5179 4.03471 78.1729 4.25196 77.8372 4.48085C77.815 4.48085 77.7948 4.49249 77.7763 4.51577V4.54487C77.8538 4.60694 77.9423 4.66901 78.0419 4.73108C78.4957 5.04145 78.9403 5.37315 79.3757 5.72618C79.8295 6.09862 80.263 6.50209 80.6762 6.9366C80.8533 7.14609 81.0304 7.35364 81.2075 7.55926C81.403 7.80755 81.6004 8.06748 81.7996 8.33905C82.0357 8.71148 82.2516 9.09361 82.4471 9.48545C82.6242 9.85788 82.7736 10.2652 82.8622 10.6668C82.9839 11.1323 83.0724 11.5688 83.0724 12.0343C83.0724 12.2826 83.0724 12.5212 83.0724 12.7501C83.0724 12.7927 83.0614 12.8238 83.0392 12.8432C83.0116 13.0934 83.0116 13.3087 82.9507 13.5299C82.9138 13.8596 82.8456 14.1894 82.7459 14.5191C82.5688 15.1205 82.3327 15.6908 82.0376 16.23C81.6613 16.8934 81.2259 17.4947 80.7315 18.034C80.4954 18.3056 80.2501 18.5655 79.9955 18.8138C79.7963 18.9767 79.5989 19.1416 79.4033 19.3084C78.6618 19.9311 77.8649 20.4606 77.0403 20.9262C76.6455 21.1551 76.2397 21.3626 75.8228 21.5488C75.2509 21.8165 74.6809 22.0648 74.1127 22.2937C73.6184 22.4799 73.1148 22.6448 72.6019 22.7884C72.1481 22.9358 71.6851 23.0716 71.2129 23.1957C70.8771 23.2578 70.5414 23.3295 70.2057 23.411C69.9511 23.4537 69.6947 23.4964 69.4364 23.539C69.1984 23.5972 68.9328 23.6322 68.7004 23.6903C68.4827 23.7136 68.265 23.735 68.0474 23.7544C67.9477 23.7738 67.85 23.7951 67.7541 23.8184C67.6046 23.8475 67.4275 23.8475 67.2781 23.8475C67.0733 23.8766 66.8963 23.9115 66.7192 23.9115C66.697 23.9115 66.6767 23.9115 66.6583 23.9115C66.5697 23.9406 66.4535 23.9406 66.3318 23.9406C66.2728 23.9406 66.2137 23.9406 66.1547 23.9406C66.0385 23.9697 65.9167 23.9697 65.7728 23.9697C65.6732 23.9697 65.5736 23.9813 65.474 24.0046C65.3965 24.0046 65.3283 24.0046 65.2692 24.0046C64.5978 24.024 63.9263 24.024 63.2548 24.0046C63.2179 24.0046 63.1792 24.0046 63.1386 24.0046C63.0224 23.9697 62.873 23.9697 62.7568 23.9697C62.5169 23.9503 62.2697 23.9406 62.0152 23.9406C61.9967 23.9406 61.9764 23.9406 61.9543 23.9406C61.7772 23.9212 61.6001 23.8998 61.423 23.8766C61.2644 23.8572 61.1076 23.8378 60.9526 23.8184C60.7423 23.7873 60.5339 23.7563 60.3273 23.7253C60.0727 23.702 59.8274 23.6593 59.5912 23.5972C59.1375 23.5158 58.6929 23.4227 58.2575 23.3179C57.6857 23.1744 57.1138 23.0095 56.542 22.8233C55.6749 22.5323 54.8374 22.2006 54.0295 21.8282C53.4705 21.5779 52.906 21.2986 52.3748 20.9902C52.2752 20.9242 52.1755 20.8602 52.0759 20.7982C52.0169 20.7788 51.9689 20.7788 51.932 20.7982C51.814 20.8835 51.6959 20.9669 51.5779 21.0484C51.006 21.4014 50.4341 21.7642 49.8623 22.1366C49.2904 22.509 48.7075 22.8815 48.1135 23.2539C47.5822 23.5875 47.051 23.9192 46.5197 24.249C46.1839 24.4779 45.839 24.6971 45.4848 24.9066C45.4848 24.9066 45.4756 24.9163 45.4571 24.9357V24.9648C45.4571 24.9648 45.4664 24.9648 45.4848 24.9648C45.4848 24.9648 45.494 24.9648 45.5125 24.9648C46.3426 24.9648 47.1709 24.9648 47.9973 24.9648C48.1965 24.9648 48.3847 24.9648 48.5618 24.9648C48.8551 24.9997 49.1207 24.9648 49.3864 24.9648C50.0578 24.988 50.7293 24.9997 51.4008 24.9997C51.4008 24.9997 51.4284 25.0288 51.4561 25.0288C51.6553 25.0288 51.8527 25.0288 52.0483 25.0288C52.0759 25.0288 52.0759 24.9997 52.1091 24.9997C52.1497 24.9997 52.1995 24.9997 52.2586 24.9997C52.6718 24.9997 53.085 24.9997 53.4982 24.9997C53.9114 24.9997 54.3246 24.9997 54.7378 24.9997C55.0367 25.0288 55.3023 25.0288 55.5956 25.0288C56.2486 25.0288 56.909 25.0288 57.5768 25.0288C57.61 25.0288 57.61 25.0579 57.6377 25.0579C57.8369 25.0579 58.0343 25.0579 58.2299 25.0579C58.2575 25.0579 58.2907 25.0288 58.2907 25.0288ZM64.738 22.9164C64.8929 22.9164 65.0497 22.9164 65.2084 22.9164C65.4076 22.9164 65.5957 22.9047 65.7728 22.8815C65.8909 22.8815 66.009 22.8815 66.127 22.8815C66.1639 22.8815 66.2027 22.8815 66.2432 22.8815C66.3207 22.8621 66.4093 22.8524 66.5089 22.8524C66.7266 22.833 66.9442 22.8233 67.1619 22.8233C67.1803 22.8233 67.1896 22.8233 67.1896 22.8233C67.3667 22.8 67.5345 22.7787 67.6932 22.7593C67.8297 22.7399 67.9773 22.7185 68.1359 22.6952C68.313 22.6661 68.5233 22.6371 68.7281 22.6021C69.0214 22.573 69.3479 22.509 69.6467 22.4508C70.0009 22.3888 70.3458 22.3054 70.6816 22.2006C71.3309 22.0532 71.9618 21.8767 72.5743 21.6711C73.2236 21.4654 73.8545 21.2268 74.4669 20.9553C75.0166 20.7264 75.559 20.4781 76.0939 20.2104C76.3485 20.0669 76.6031 19.9214 76.8577 19.774C77.4885 19.4015 78.0899 18.9981 78.6618 18.5635C78.9975 18.292 79.313 18.0127 79.6081 17.7256C79.7483 17.5781 79.8867 17.4327 80.0232 17.2891C80.3773 16.9167 80.6928 16.5132 80.9695 16.0787C81.3237 15.5142 81.5893 14.9556 81.7719 14.3038C81.8679 13.9508 81.9269 13.588 81.949 13.2156C81.9859 12.8626 81.9748 12.5115 81.9158 12.1623C81.8789 11.9102 81.8402 11.6599 81.7996 11.4116C81.6815 10.9345 81.5229 10.4592 81.3237 9.98591C80.9418 9.11301 80.4382 8.36814 79.8184 7.68147C79.4642 7.30903 79.0897 6.95793 78.695 6.62817C78.101 6.17039 77.4793 5.77662 76.83 5.44686C76.7525 5.40418 76.6732 5.37315 76.592 5.35375C76.5551 5.33047 76.5256 5.33047 76.5035 5.35375C76.485 5.35375 76.4666 5.36345 76.4481 5.38284C76.0312 5.63113 75.6162 5.89106 75.203 6.16263C74.6901 6.49239 74.1773 6.81245 73.6645 7.12281C73.0557 7.51853 72.4451 7.9123 71.8327 8.30413C71.2608 8.65717 70.689 9.0102 70.1171 9.36324C69.5452 9.73568 68.9642 10.1081 68.3739 10.4805C67.7614 10.8763 67.1508 11.2603 66.5421 11.6328C65.9112 12.0479 65.2803 12.4513 64.6494 12.8432C64.1144 13.1768 63.5906 13.5085 63.0777 13.8383C62.6461 14.106 62.2126 14.3756 61.7772 14.6472C61.2644 14.9769 60.7423 15.3086 60.2111 15.6423C59.7979 15.9099 59.3736 16.1796 58.9382 16.4511C58.466 16.7615 57.9937 17.0622 57.5215 17.3531C56.9865 17.7023 56.4442 18.0437 55.8945 18.3773C55.3816 18.7071 54.8596 19.0388 54.3283 19.3724C54.0295 19.5586 53.7325 19.7449 53.4373 19.9311C53.4189 19.9505 53.4096 19.9602 53.4096 19.9602C53.382 19.9951 53.382 20.0242 53.4096 20.0242C53.5683 20.1289 53.7251 20.222 53.88 20.3035C54.2158 20.4897 54.5515 20.6663 54.8872 20.8331C55.4001 21.0814 55.9332 21.2986 56.4866 21.4848C56.7818 21.609 57.0769 21.7118 57.3721 21.7933C57.6488 21.898 57.9347 21.9814 58.2299 22.0435C58.6652 22.1676 59.0987 22.2821 59.5304 22.3868C59.7296 22.4295 59.9362 22.4702 60.1502 22.509C60.3273 22.5323 60.4951 22.5633 60.6538 22.6021C60.8309 22.6254 61.019 22.6468 61.2183 22.6661C61.3363 22.6855 61.4636 22.7069 61.6001 22.7302C61.7994 22.7496 61.9875 22.769 62.1646 22.7884C62.2015 22.7884 62.231 22.7884 62.2532 22.7884C62.4302 22.8233 62.6073 22.8233 62.8121 22.8524C62.9892 22.8815 63.1663 22.8524 63.3434 22.8815C63.5205 22.8815 63.6699 22.8815 63.847 22.8815C64.0056 22.9047 64.1643 22.9164 64.3229 22.9164C64.4594 22.9164 64.5978 22.9164 64.738 22.9164ZM64.6162 1.62358C64.3616 1.62358 64.1163 1.62358 63.8802 1.62358C63.5813 1.65268 63.2548 1.62358 62.9615 1.65268C62.7567 1.68177 62.5465 1.68177 62.3694 1.71669C62.1738 1.73609 61.9764 1.74578 61.7772 1.74578C61.7588 1.74578 61.7495 1.74578 61.7495 1.74578C61.5909 1.76518 61.4323 1.78652 61.2736 1.8098C61.1555 1.82919 61.0283 1.85053 60.8918 1.87381C60.6925 1.89321 60.4951 1.92424 60.2996 1.96692C60.0635 2.00571 59.8274 2.04645 59.5912 2.08912C59.2555 2.1512 58.9105 2.22297 58.5564 2.30444C58.0214 2.45186 57.4883 2.60704 56.957 2.76998C56.5253 2.9174 56.0918 3.07452 55.6565 3.24134C55.0256 3.48963 54.3947 3.76896 53.7638 4.07932C53.5093 4.22286 53.2436 4.36835 52.9669 4.51577C52.5316 4.76406 52.1073 5.03175 51.6941 5.31883C51.1812 5.65247 50.6979 6.01521 50.2441 6.40704C50.0265 6.59326 49.8199 6.79111 49.6243 7.00061C49.3476 7.2683 49.082 7.54762 48.8274 7.83859C48.6282 8.06748 48.44 8.30607 48.2629 8.55436C47.9364 9.0199 47.6431 9.48545 47.4383 10.015C47.2576 10.368 47.1284 10.7405 47.051 11.1323C47.0104 11.3418 46.9716 11.5397 46.9347 11.7259C46.9015 11.9121 46.9015 12.0983 46.8739 12.2554C46.8739 12.6279 46.8739 12.9654 46.9015 13.3087C46.9237 13.4949 46.9532 13.6715 46.9901 13.8383C47.0786 14.3969 47.2557 14.9556 47.466 15.4851C47.6431 15.9003 47.8589 16.3037 48.1135 16.6956C48.4732 17.26 48.8551 17.7547 49.2978 18.2493C49.5561 18.5209 49.8217 18.7905 50.0947 19.0582C50.412 19.3298 50.7385 19.5994 51.0743 19.8671C51.3879 20.1154 51.7125 20.3443 52.0483 20.5537C52.0667 20.5731 52.0962 20.5925 52.1368 20.6119C52.1774 20.6352 52.2069 20.6352 52.2253 20.6119C52.2475 20.5925 52.2586 20.5828 52.2586 20.5828C52.4947 20.4393 52.7197 20.2938 52.9337 20.1464C52.9558 20.127 52.9761 20.1173 52.9946 20.1173C52.9946 20.0979 52.9946 20.0882 52.9946 20.0882C52.954 20.0455 52.9245 20.0145 52.906 19.9951C52.7105 19.8709 52.5039 19.7352 52.2862 19.5877C51.8509 19.2968 51.4358 18.9767 51.041 18.6276C50.8049 18.4181 50.5799 18.2105 50.3659 18.0049C50.2072 17.8575 50.0578 17.7023 49.9176 17.5394C49.545 17.1436 49.2 16.7188 48.8827 16.2649C48.5691 15.7877 48.3035 15.2795 48.0858 14.7403C47.8903 14.2437 47.763 13.7141 47.704 13.1516C47.6818 12.8412 47.7003 12.5309 47.7593 12.2205C47.7999 11.9102 47.8589 11.6095 47.9364 11.3185C48.1135 10.7599 48.3515 10.2226 48.6503 9.70658C48.9824 9.12465 49.3753 8.59509 49.8291 8.11791C50.0283 7.88902 50.2257 7.68147 50.4212 7.49525C50.6205 7.30903 50.8178 7.13445 51.0134 6.97151C51.7217 6.37794 52.4633 5.8833 53.2602 5.44686C53.7325 5.17529 54.2158 4.9367 54.7102 4.73108C55.0459 4.56426 55.3909 4.40908 55.745 4.26554C56.2173 4.07932 56.7006 3.9125 57.195 3.76508C57.7668 3.57886 58.3479 3.42368 58.9382 3.29954C59.5101 3.15599 60.0819 3.04155 60.6538 2.9562C61.008 2.89413 61.3732 2.83205 61.7495 2.76998C61.9543 2.76998 62.1646 2.74088 62.397 2.71179C62.397 2.71179 62.4081 2.71179 62.4302 2.71179C62.5188 2.67687 62.6073 2.67687 62.6959 2.67687C62.7365 2.67687 62.7752 2.67687 62.8121 2.67687C62.9338 2.64778 63.0501 2.64778 63.1663 2.64778C63.2069 2.64778 63.2474 2.64778 63.288 2.64778C63.3766 2.61868 63.4928 2.61868 63.5813 2.61868C63.6994 2.61868 63.8082 2.60704 63.9078 2.58376C63.9853 2.58376 64.0646 2.58376 64.1458 2.58376C64.6955 2.58376 65.2379 2.58376 65.7728 2.58376C66.0661 2.58376 66.3927 2.58376 66.686 2.61868C66.9239 2.61868 67.1287 2.61868 67.339 2.64778C67.5438 2.64778 67.7541 2.67687 67.9588 2.67687C68.075 2.71179 68.1968 2.71179 68.313 2.74088C68.3351 2.74088 68.3462 2.74088 68.3462 2.74088C68.4827 2.76028 68.6192 2.76998 68.7557 2.76998C68.9144 2.79326 69.0822 2.82429 69.2593 2.86309C69.3405 2.86309 69.4198 2.87473 69.4973 2.89801C69.7353 2.9271 70.0009 2.9562 70.2333 3.02021C70.7093 3.12496 71.1833 3.22971 71.6556 3.33445C72.268 3.49739 72.8786 3.67197 73.4874 3.85819C73.9818 4.02501 74.4743 4.21317 74.965 4.42266C75.5018 4.63797 76.0054 4.85329 76.5035 5.13261C76.5441 5.15589 76.5736 5.16753 76.592 5.16753C76.6142 5.16753 76.6344 5.16753 76.6529 5.16753C76.6713 5.16753 76.6916 5.15589 76.7138 5.13261C76.9314 4.98907 77.1473 4.84553 77.3613 4.70199C77.3834 4.67871 77.3945 4.66707 77.3945 4.66707C77.4221 4.63797 77.4221 4.60888 77.3945 4.60888C77.3539 4.5662 77.3133 4.53517 77.2727 4.51577C77.0772 4.38774 76.8798 4.2733 76.6806 4.17243C76.4666 4.04829 76.2415 3.93384 76.0054 3.82909C75.6106 3.64288 75.1956 3.46636 74.7602 3.29954C74.406 3.15599 74.0408 3.03185 73.6645 2.9271C73.3915 2.82235 73.1055 2.72925 72.8067 2.64778C72.4525 2.54303 72.0983 2.45962 71.7441 2.39755C71.3494 2.29668 70.9546 2.21521 70.5598 2.15314C70.4049 2.11046 70.2481 2.07942 70.0894 2.06003C69.8718 2.01735 69.6652 1.98632 69.4696 1.96692C69.3479 1.94364 69.228 1.9223 69.1099 1.90291C68.9734 1.88351 68.8461 1.87381 68.7281 1.87381C68.5694 1.85053 68.4108 1.82919 68.2521 1.8098C68.2337 1.8098 68.2152 1.8098 68.1968 1.8098C68.1156 1.8098 68.0363 1.79816 67.9588 1.77488C67.9182 1.77488 67.8795 1.77488 67.8426 1.77488C67.7208 1.74578 67.6046 1.74578 67.5161 1.74578C67.4755 1.74578 67.4368 1.74578 67.3999 1.74578C67.2781 1.71669 67.1896 1.71669 67.0734 1.71669C67.0328 1.71669 66.9922 1.71669 66.9516 1.71669C66.7192 1.68177 66.5089 1.68177 66.3041 1.65268C66.2635 1.65268 66.2229 1.65268 66.1824 1.65268C66.0864 1.65268 65.9979 1.65268 65.9167 1.65268C65.4851 1.63328 65.0516 1.62358 64.6162 1.62358ZM66.8963 7.49525C66.8963 7.22756 66.8963 6.97927 66.8963 6.75038C66.8963 6.68831 66.8963 6.63593 66.8963 6.59326C66.8963 6.56416 66.8631 6.56416 66.8354 6.56416C66.7948 6.60684 66.7561 6.63787 66.7192 6.65727C66.5015 6.86676 66.293 7.06462 66.0938 7.25084C65.9167 7.39438 65.7507 7.54956 65.5957 7.71638C65.3855 7.9026 65.4131 7.80949 65.4131 8.11791C65.4463 8.24594 65.4463 8.39724 65.4463 8.52526C65.4463 8.86278 65.4463 9.20612 65.4131 9.52036C65.4131 9.76865 65.4039 10.0169 65.3855 10.2652C65.367 10.3467 65.3375 10.4282 65.2969 10.5096C65.2563 10.595 65.2176 10.6571 65.1807 10.6959C65.0331 10.8549 64.8855 10.981 64.738 11.0741C64.4115 11.3185 64.0241 11.4756 63.6699 11.6328C63.5537 11.691 63.5205 11.7259 63.5205 11.5397C63.502 11.497 63.4928 11.4543 63.4928 11.4116C63.4743 11.2487 63.4651 11.0935 63.4651 10.9461C63.443 10.9073 63.4319 10.8763 63.4319 10.853C63.4319 10.8239 63.4042 10.8239 63.3766 10.853C63.3544 10.8763 63.3249 10.9073 63.288 10.9461C63.1663 11.1323 62.9892 11.2894 62.8453 11.4465C62.7051 11.5901 62.5557 11.7142 62.397 11.819C62.2605 11.9005 62.1037 11.9625 61.9266 12.0052C61.768 12.0246 61.6296 11.9819 61.5116 11.8772C61.471 11.8384 61.4415 11.7879 61.423 11.7259C61.364 11.6405 61.3253 11.5474 61.3068 11.4465C61.2847 11.4039 61.2644 11.3515 61.2459 11.2894C61.2183 11.2254 61.2183 11.2254 61.1574 11.2603C61.1574 11.2797 61.1482 11.2894 61.1297 11.2894C60.9803 11.4465 60.8032 11.5979 60.6261 11.7259C60.3679 11.8888 60.0912 12.0033 59.796 12.0692C59.6005 12.1313 59.3939 12.141 59.1762 12.0983C58.8995 12.0789 58.6431 11.9955 58.4069 11.8481C58.0528 11.6619 57.7963 11.3612 57.6377 10.9461C57.5602 10.7172 57.5215 10.4786 57.5215 10.2303C57.5215 10.2109 57.5104 10.1915 57.4883 10.1721C57.4883 10.1721 57.4883 10.1605 57.4883 10.1372C57.4698 10.1372 57.4606 10.1372 57.4606 10.1372C57.4422 10.1605 57.4329 10.1818 57.4329 10.2012C57.2153 10.4495 57.0068 10.6978 56.8076 10.9461C56.5715 11.2371 56.3353 11.528 56.0992 11.819C56.0992 11.8384 56.09 11.8578 56.0716 11.8772C56.0531 11.9005 56.0531 11.9218 56.0716 11.9412C56.0716 11.9606 56.0808 11.9703 56.0992 11.9703C56.3575 12.3466 56.6139 12.721 56.8685 13.0934C56.909 13.1555 56.9386 13.2059 56.957 13.2447C56.9791 13.268 56.9902 13.301 56.9902 13.3436C56.9902 13.363 56.9902 13.3941 56.9902 13.4367C56.957 13.559 56.9293 13.6812 56.8685 13.8092C56.732 14.201 56.5253 14.5521 56.2486 14.8625C56.09 15.0293 55.9221 15.1845 55.745 15.328C55.3632 15.5782 54.9481 15.7354 54.5054 15.7354C54.4242 15.7354 54.3541 15.7354 54.2951 15.7354C54.1401 15.7354 53.9926 15.714 53.8524 15.6714C53.5757 15.6093 53.31 15.4948 53.0555 15.328C52.9153 15.2465 52.7769 15.1437 52.6404 15.0196C52.17 14.5191 51.9874 13.9605 52.1091 13.2796C52.1091 13.1749 52.1294 13.0701 52.17 12.9654C52.1885 12.9033 52.1885 12.8412 52.17 12.7792C52.17 12.6977 52.1294 12.6473 52.0483 12.6279C52.0298 12.6046 52.0095 12.5929 51.9874 12.5929C51.8988 12.5929 51.7826 12.6279 51.6941 12.6861C51.6756 12.6861 51.6553 12.7074 51.6332 12.7501C51.5963 12.8315 51.5576 12.915 51.517 13.0003C51.279 13.4367 51.1628 13.9314 51.1351 14.426C51.0945 14.717 51.0945 15.008 51.1351 15.2989C51.172 15.5472 51.2311 15.7858 51.3122 16.0147C51.5078 16.4919 51.8232 16.8643 52.2586 17.132C52.6681 17.3822 53.0831 17.5044 53.5591 17.5394C53.8136 17.5587 54.0793 17.5471 54.356 17.5044C54.5921 17.4656 54.8282 17.3939 55.0643 17.2891C55.4407 17.1417 55.7856 16.9244 56.0992 16.6374C56.435 16.327 56.7412 15.9837 57.0179 15.6073C57.3997 15.0836 57.7539 14.49 57.9919 13.8674C58.014 13.848 58.0251 13.8286 58.0251 13.8092C58.0435 13.7859 58.062 13.7743 58.0804 13.7743C58.0804 13.7743 58.0915 13.7743 58.1136 13.7743C58.3461 13.8092 58.584 13.8383 58.822 13.8383C58.9105 13.8383 58.9714 13.8383 59.0268 13.8383C59.5304 13.8674 60.0063 13.8674 60.4767 13.8383C60.735 13.8189 60.9821 13.7878 61.2183 13.7452C61.4728 13.7258 61.7293 13.685 61.9875 13.623C62.4782 13.4988 62.9707 13.3223 63.4651 13.0934C63.8009 12.946 64.1347 12.7695 64.4668 12.5639C64.8542 12.2845 65.236 11.9703 65.5625 11.5979C65.6437 11.5358 65.7138 11.464 65.7728 11.3825C66.0864 10.9907 66.3428 10.5562 66.5421 10.079C66.6196 9.8928 66.6786 9.69494 66.7192 9.48545C66.7966 9.17508 66.8446 8.86472 66.8631 8.55436C66.8631 8.53496 66.8631 8.50393 66.8631 8.46125C66.8963 8.36814 66.8963 8.27503 66.8963 8.18192C66.8963 7.95303 66.8963 7.72414 66.8963 7.49525ZM52.8784 10.5446C52.9337 10.5446 53.0223 10.5446 53.1163 10.5096C53.2528 10.4476 53.3598 10.3545 53.4373 10.2303C53.4963 10.1294 53.5462 10.0169 53.5867 9.8928C53.5867 9.85012 53.5775 9.81909 53.5591 9.79969C53.5 9.77641 53.441 9.75507 53.382 9.73568C53.2934 9.67166 53.1717 9.57856 53.0831 9.48545C52.9669 9.32833 52.906 9.14211 52.9669 8.92679C53.0038 8.78325 53.0628 8.64941 53.144 8.52526C53.1846 8.46319 53.2344 8.40112 53.2934 8.33905C53.3303 8.27697 53.3598 8.2246 53.382 8.18192C53.382 8.13925 53.3912 8.09657 53.4096 8.0539C53.4096 7.93169 53.3211 7.80949 53.2049 7.74548C53.1827 7.74548 53.1625 7.74548 53.144 7.74548C53.1256 7.76488 53.1053 7.78621 53.0831 7.80949C52.906 7.96079 52.729 8.11791 52.5795 8.30413C52.5021 8.38948 52.4246 8.49423 52.3471 8.61837C52.1977 8.9268 52.1091 9.27013 52.0759 9.61347C52.0759 9.70658 52.1091 9.79969 52.1091 9.85788C52.1091 9.96263 52.1294 10.0557 52.17 10.1372C52.2475 10.304 52.3748 10.4185 52.5519 10.4805C52.6681 10.5446 52.7566 10.5446 52.8784 10.5446ZM35.4293 24.8135C35.4293 25.3488 35.4293 25.8862 35.4293 26.4254C35.4293 26.697 35.4293 26.9666 35.4293 27.2343C35.4293 27.2537 35.4293 27.2847 35.4293 27.3274C35.4293 27.3914 35.4902 27.4845 35.5788 27.4845C35.6157 27.4845 35.6544 27.4845 35.695 27.4845C35.9901 27.4845 36.2853 27.4845 36.5804 27.4845C36.6395 27.4845 36.6893 27.4748 36.7299 27.4554C36.7704 27.4554 36.811 27.4554 36.8516 27.4554C37.2242 27.4554 37.5987 27.4554 37.975 27.4554C38.0027 27.4554 38.0027 27.4845 38.0304 27.4845C38.1706 27.4845 38.3181 27.4845 38.4731 27.4845C38.5063 27.4845 38.5063 27.4554 38.534 27.4554C38.8882 27.4554 39.2331 27.4438 39.5689 27.4205C39.6906 27.4205 39.7791 27.4554 39.8677 27.4205C39.8861 27.4205 39.9157 27.4205 39.9562 27.4205C40.41 27.4205 40.8731 27.4205 41.3453 27.4205H41.373C41.432 27.4438 41.491 27.4438 41.5501 27.4205H41.5833C41.9374 27.4011 42.3008 27.3914 42.6735 27.3914C42.7731 27.3914 42.8727 27.3914 42.9723 27.3914C43.0609 27.3914 43.1494 27.3914 43.238 27.3914C43.3265 27.3914 43.3818 27.4554 43.4151 27.5136C43.4335 27.599 43.4427 27.6727 43.4427 27.7348C43.4427 28.0839 43.4427 28.435 43.4427 28.788C43.4427 28.9355 43.4427 29.0907 43.4427 29.2536C43.4243 29.2769 43.4151 29.3079 43.4151 29.3467C43.4151 29.4708 43.4151 29.595 43.4151 29.7191C43.4151 29.8239 43.4151 29.9189 43.4151 30.0043C43.4151 30.0431 43.4243 30.0741 43.4427 30.0974C43.4427 30.656 43.4427 31.2244 43.4427 31.8024C43.4427 31.8878 43.4519 31.9809 43.4704 32.0818C43.4704 32.105 43.4704 32.1361 43.4704 32.1749C43.4704 32.8383 43.4704 33.5133 43.4704 34.2C43.4704 34.2194 43.4704 34.2388 43.4704 34.2582C43.4704 34.3513 43.4151 34.4153 43.3542 34.4153C43.3357 34.4153 43.3154 34.4153 43.2933 34.4153C43.2564 34.4153 43.2084 34.4153 43.1494 34.4153C43.0885 34.4153 29.3086 34.4153 29.2477 34.4153C29.1887 34.4153 29.15 34.394 29.1315 34.3513C29.0707 34.3222 29.043 34.2931 29.043 34.2291C29.043 34.167 29.043 34.0952 29.043 34.0138C29.043 33.3271 29.043 32.6521 29.043 31.9887C29.043 27.6591 29.0319 23.3295 29.0098 19C29.0098 16.4705 29.0098 13.9411 29.0098 11.4116C29.0098 11.3108 29.0098 11.208 29.0098 11.1032C29.0098 11.0411 29.0098 10.9791 29.0098 10.917C29.0098 9.44665 29.0098 7.96467 29.0098 6.47105C29.0098 4.44206 29.0006 2.42082 28.9821 0.407347C28.9821 0.345275 28.9821 0.283202 28.9821 0.22113C28.9821 0.162937 29.0098 0.128021 29.043 0.0989244C29.0614 0.0562495 29.0909 0.0349121 29.1315 0.0349121C29.1906 0.0349121 29.2404 0.0349121 29.2809 0.0349121C31.2511 0.0349121 33.2212 0.0349121 35.1914 0.0349121C35.2504 0.0349121 35.3094 0.0349121 35.3685 0.0349121C35.3906 0.0349121 35.4201 0.0562495 35.457 0.0989244C35.4791 0.0989244 35.4902 0.108623 35.4902 0.128021C35.4902 0.190093 35.4902 0.252166 35.4902 0.314238C35.4902 0.896168 35.4902 1.4878 35.4902 2.08912C35.4902 3.29178 35.4902 4.49443 35.4902 5.69709C35.4902 5.77856 35.4902 5.87167 35.4902 5.97641C35.4681 6.03848 35.457 6.08892 35.457 6.12771C35.457 8.3662 35.457 10.6144 35.457 12.8723C35.457 14.3853 35.457 15.8983 35.457 17.4113C35.457 17.5355 35.4478 17.6596 35.4293 17.7838C35.4293 17.8458 35.4293 17.9079 35.4293 17.97C35.4293 19.5063 35.4293 21.0406 35.4293 22.573C35.4293 22.5924 35.4293 22.6138 35.4293 22.6371C35.4109 22.6565 35.4017 22.6758 35.4017 22.6952C35.4017 22.7379 35.4017 22.7806 35.4017 22.8233C35.4017 23.4246 35.4017 24.024 35.4017 24.6214C35.4017 24.6641 35.4017 24.7068 35.4017 24.7495C35.4017 24.7689 35.4109 24.7902 35.4293 24.8135Z" fill="#29BDEF"/>
<path fill-rule="evenodd" clip-rule="evenodd" d="M45.1915 34.4153C45.1325 34.4153 45.0735 34.4153 45.0144 34.4153C44.9812 34.4153 44.9259 34.3804 44.9259 34.3222C44.9259 34.2795 44.9259 34.2368 44.9259 34.1942C44.9259 33.2204 44.9351 32.2583 44.9535 31.3078C44.9535 31.2225 44.9535 31.1274 44.9535 31.0227C44.9535 30.9412 44.9535 30.8597 44.9535 30.7782C44.9535 30.7356 44.9535 30.6929 44.9535 30.6502C44.9535 29.7812 44.9628 28.9006 44.9812 28.0083C44.9812 27.8647 44.9812 27.7212 44.9812 27.5776C44.9812 27.5136 45.0144 27.4496 45.0698 27.4205C45.0919 27.4011 45.1122 27.3914 45.1306 27.3914C45.2302 27.3914 45.3188 27.3914 45.3963 27.3914C47.6062 27.3914 49.8143 27.3914 52.0206 27.3914C52.1387 27.3914 52.2567 27.4108 52.3748 27.4496C52.788 27.6358 53.0739 27.9462 53.2326 28.3807C53.2916 28.5902 53.3211 28.7977 53.3211 29.0034C53.3211 29.7094 53.3211 30.4136 53.3211 31.1158C53.2934 31.5871 53.2934 32.0527 53.2934 32.5182C53.2934 32.8286 53.2344 33.1292 53.1163 33.4202C53.0352 33.6258 52.9263 33.812 52.7898 33.9789C52.6127 34.1845 52.3858 34.33 52.1091 34.4153C52.0501 34.4153 52.0003 34.4153 51.9597 34.4153C51.9228 34.4153 51.8749 34.4153 51.8158 34.4153C50.7201 34.4153 46.2817 34.4153 45.1915 34.4153ZM46.7577 30.8714C46.7577 31.2632 46.7577 31.6453 46.7577 32.0178C46.7392 32.0798 46.73 32.1535 46.73 32.2389C46.73 32.5299 46.73 32.8189 46.73 33.106C46.73 33.1292 46.7392 33.1506 46.7577 33.17C46.7761 33.1894 46.8056 33.2107 46.8462 33.234C46.9052 33.234 46.9735 33.234 47.051 33.234C47.169 33.2107 47.2779 33.1991 47.3775 33.1991C47.4365 33.1991 47.4955 33.1991 47.5546 33.1991C48.3441 33.1991 49.1336 33.1894 49.9232 33.17C50.0671 33.17 50.2165 33.1991 50.3382 33.17C50.4747 33.17 50.602 33.17 50.7201 33.17C50.8566 33.17 50.9949 33.17 51.1351 33.17C51.3122 33.1506 51.4598 33.0885 51.5779 32.9838C51.6959 32.879 51.7845 32.7646 51.8435 32.6404C51.8841 32.5396 51.9228 32.4464 51.9597 32.3611C52.0003 32.1749 52.0206 31.9887 52.0206 31.8024C52.0206 31.6589 52.0206 31.5037 52.0206 31.3369C52.0483 31.1798 52.0483 30.9936 52.0483 30.8073C52.0483 30.528 52.0483 30.2487 52.0815 29.9694C52.0815 29.9267 52.0815 29.8957 52.0815 29.8763C52.0815 29.7909 52.0704 29.7172 52.0483 29.6551C52.0114 29.4301 51.9228 29.2342 51.7826 29.0674C51.5779 28.788 51.1351 28.5669 50.8086 28.6018C50.4544 28.6018 50.1003 28.6018 49.7129 28.6018C49.3587 28.6018 49.0045 28.6018 48.6227 28.5669C48.0508 28.5669 47.4882 28.5669 46.9348 28.5669C46.8942 28.5669 46.8647 28.5669 46.8462 28.5669C46.7853 28.5669 46.7577 28.6309 46.7577 28.6658C46.7577 28.7046 46.7577 28.7551 46.7577 28.8171C46.7577 29.4999 46.7577 30.1847 46.7577 30.8714ZM81.0636 27.3914C81.9085 27.3914 82.7662 27.3914 83.6369 27.3914C83.755 27.3914 83.8823 27.4011 84.0188 27.4205C84.1369 27.4205 84.2457 27.4612 84.3453 27.5427C84.4043 27.5854 84.4523 27.6475 84.4892 27.7289C84.5519 27.8337 84.5833 27.9481 84.5833 28.0723C84.5833 28.2895 84.5833 28.5068 84.5833 28.724C84.5501 28.8171 84.5833 28.9103 84.5501 29.0383C84.5501 29.1003 84.5501 29.1721 84.5501 29.2536C84.5501 29.2827 84.5224 29.3176 84.5224 29.3176C84.5003 29.3176 84.4707 29.3176 84.4338 29.3176C84.0797 29.3176 83.7144 29.3176 83.3381 29.3176C83.3197 29.3176 83.2901 29.3176 83.2496 29.3176L83.2219 29.2827C83.2219 29.2633 83.2219 29.2439 83.2219 29.2245C83.1997 29.1197 83.1887 29.015 83.1887 28.9103C83.161 28.7589 83.0448 28.6658 82.923 28.6658C82.8861 28.6658 82.8566 28.6658 82.8345 28.6658C81.5543 28.6658 80.2833 28.6755 79.0215 28.6949C78.9625 28.6949 78.8924 28.6949 78.8112 28.6949C78.7153 28.7143 78.6378 28.7667 78.5788 28.8521C78.5382 28.9335 78.5179 29.0266 78.5179 29.1314C78.5179 29.3176 78.5179 29.5038 78.5179 29.69C78.5179 29.7715 78.5179 29.8549 78.5179 29.9403C78.5363 30.1032 78.6046 30.2371 78.7227 30.3418C78.8223 30.4233 78.9311 30.464 79.0492 30.464C79.1082 30.464 79.1672 30.464 79.2263 30.464C79.6026 30.464 79.9771 30.464 80.3497 30.464C80.4714 30.464 80.5877 30.464 80.6762 30.464C80.7168 30.4446 80.7574 30.4446 80.7979 30.464C81.8015 30.4446 82.7958 30.4349 83.7808 30.4349C83.862 30.4349 83.9505 30.4349 84.0465 30.4349C84.1867 30.4543 84.3047 30.5164 84.4006 30.6211C84.4818 30.7026 84.5316 30.786 84.5501 30.8714C84.5722 30.9528 84.5833 31.0343 84.5833 31.1158C84.5833 31.3059 84.5833 31.494 84.5833 31.6802C84.5501 32.204 84.5833 32.7335 84.5501 33.2631C84.5501 33.3252 84.5501 33.3969 84.5501 33.4784C84.5501 33.6258 84.5205 33.7616 84.4615 33.8857C84.4209 34.0526 84.3324 34.1864 84.1959 34.2873C84.1184 34.3494 84.0299 34.392 83.9302 34.4153C83.8528 34.4347 83.7642 34.4444 83.6646 34.4444C81.9306 34.4444 80.2058 34.4444 78.4902 34.4444C78.35 34.4444 78.2209 34.4347 78.1028 34.4153C77.9442 34.392 77.8058 34.3397 77.6878 34.2582C77.5513 34.134 77.4738 33.9886 77.4553 33.8217C77.4553 33.7829 77.4553 33.7519 77.4553 33.7286C77.4553 33.4377 77.4553 33.1486 77.4553 32.8616C77.4553 32.7568 77.4553 32.6521 77.4553 32.5473C77.4553 32.5085 77.4553 32.4678 77.4553 32.4251C77.4553 32.3902 77.483 32.3611 77.483 32.3611C77.5015 32.3611 77.5218 32.3611 77.5439 32.3611C77.8575 32.3611 78.1729 32.3611 78.4902 32.3611C78.5087 32.3611 78.5271 32.3611 78.5456 32.3611C78.5788 32.3611 78.5788 32.3902 78.5788 32.3902C78.5972 32.4329 78.6064 32.4658 78.6064 32.4891C78.6064 32.59 78.6064 32.6928 78.6064 32.7975C78.6064 32.8596 78.6064 32.912 78.6064 32.9547C78.6064 33.0769 78.7227 33.17 78.8444 33.1991C78.885 33.1991 78.9237 33.1991 78.9606 33.1991C80.263 33.1991 81.5653 33.1991 82.8677 33.1991C82.9452 33.1991 83.0227 33.1894 83.1001 33.17C83.2496 33.106 83.3381 32.9838 83.3381 32.8266C83.3565 32.7878 83.3658 32.7471 83.3658 32.7044C83.3658 32.4755 83.3658 32.2583 83.3658 32.0527C83.3658 32.01 83.3658 31.979 83.3658 31.9596C83.3473 31.8121 83.2791 31.719 83.161 31.6802C83.1204 31.657 83.0817 31.6453 83.0448 31.6453C82.923 31.6162 82.8068 31.6162 82.6906 31.6162C82.2737 31.5968 81.8494 31.5871 81.4178 31.5871C80.6873 31.5871 79.9568 31.5968 79.2263 31.6162C79.0713 31.6162 78.9145 31.6065 78.7559 31.5871C78.5382 31.5871 78.3205 31.5445 78.1028 31.4591C77.9442 31.397 77.8058 31.2942 77.6878 31.1507C77.5697 31.0265 77.4922 30.8811 77.4553 30.7142C77.4553 30.6095 77.4553 30.5164 77.4553 30.4349C77.4553 30.2914 77.4553 30.1575 77.4553 30.0334C77.4553 29.9053 77.4553 29.7831 77.4553 29.69C77.4553 29.6474 77.4553 29.595 77.4553 29.5329C77.4553 29.1605 77.4553 28.788 77.4553 28.4156C77.4553 28.3535 77.4553 28.2915 77.4553 28.2294C77.4738 27.8958 77.6306 27.6475 77.9257 27.4845C78.0659 27.4225 78.2135 27.3914 78.3685 27.3914C78.7854 27.3914 79.2004 27.3914 79.6136 27.3914C80.0859 27.3914 80.5692 27.3914 81.0636 27.3914ZM67.3722 31.5871C67.0457 31.5871 66.7192 31.6162 66.3927 31.5871C66.0108 31.5522 65.6234 31.5871 65.2416 31.5522C64.8468 31.5522 64.452 31.5522 64.0573 31.5522C64.0167 31.5522 63.9872 31.5522 63.9687 31.5522C63.9097 31.5522 63.8802 31.5832 63.8802 31.6453C63.8802 31.688 63.8802 31.7307 63.8802 31.7733C63.8802 31.9363 63.871 32.0915 63.8525 32.2389C63.8525 32.4891 63.8525 32.7044 63.8525 32.9197C63.8525 32.9818 63.882 33.0129 63.9411 33.0129C64.037 33.0129 64.1348 33.0129 64.2344 33.0129C64.3118 33.0129 64.3801 33.0245 64.4391 33.0478C64.5019 33.0478 64.5627 33.0478 64.6218 33.0478C66.0385 33.0478 67.4571 33.0478 68.8775 33.0478C68.955 33.0478 69.0232 33.0478 69.0822 33.0478C69.1154 33.0478 69.1431 33.0769 69.1431 33.106C69.1431 33.1292 69.1431 33.1603 69.1431 33.1991C69.1431 33.5521 69.1431 33.9148 69.1431 34.2873C69.1431 34.3106 69.1431 34.3416 69.1431 34.3804L69.1154 34.4153C69.0749 34.4153 69.0343 34.4153 68.9937 34.4153C68.7207 34.4153 68.4347 34.4153 68.1359 34.4153C67.2505 34.4153 66.365 34.4153 65.4795 34.4153C65.3984 34.4153 65.3191 34.4037 65.2416 34.3804C65.1825 34.3804 65.1235 34.3804 65.0645 34.3804C64.2749 34.3804 63.4965 34.3804 62.7291 34.3804C62.6701 34.3804 62.6203 34.3804 62.5797 34.3804C62.5391 34.3804 62.5188 34.361 62.5188 34.3222C62.5188 34.2795 62.5188 34.2368 62.5188 34.1942C62.5188 32.848 62.5188 31.5018 62.5188 30.1556C62.5188 30.0935 62.5188 30.0314 62.5188 29.9694C62.5188 29.884 62.5188 29.8103 62.5188 29.7482C62.5372 29.046 62.5465 28.3535 62.5465 27.6707C62.5465 27.6281 62.5465 27.597 62.5465 27.5776C62.5465 27.3565 62.5465 27.4205 62.6959 27.3914C62.7549 27.3914 62.8047 27.3914 62.8453 27.3914C64.8745 27.3914 66.9055 27.3914 68.9384 27.3914C69.1708 27.3914 69.1431 27.3565 69.1431 27.5776C69.1431 27.9268 69.1431 28.2682 69.1431 28.6018C69.1431 28.6445 69.1339 28.6755 69.1154 28.6949C69.1154 28.7143 69.1154 28.724 69.1154 28.724C69.0933 28.724 69.073 28.724 69.0546 28.724C68.9955 28.7473 68.9457 28.7589 68.9052 28.7589C67.4294 28.7357 65.9518 28.724 64.4723 28.724C64.3137 28.724 64.1661 28.724 64.0296 28.724C63.989 28.724 63.9595 28.7357 63.9411 28.7589C63.9189 28.7589 63.9079 28.7686 63.9079 28.788C63.8894 28.8074 63.8802 28.8288 63.8802 28.8521C63.8802 29.306 63.8802 29.7502 63.8802 30.1847C63.8802 30.208 63.8802 30.2293 63.8802 30.2487C63.8802 30.2778 63.9079 30.2778 63.9079 30.2778C63.9484 30.3011 63.9982 30.3127 64.0573 30.3127C64.6107 30.3127 65.1733 30.3127 65.7452 30.3127C66.7487 30.3127 67.7541 30.3127 68.7613 30.3127C68.7982 30.3127 68.8369 30.3127 68.8775 30.3127C68.9384 30.3127 68.9384 30.3418 68.9384 30.4058C68.9384 30.5494 68.9384 30.6929 68.9384 30.8364C68.9568 31.0227 68.966 31.2108 68.966 31.4009C68.966 31.463 68.966 31.5134 68.966 31.5522C68.966 31.5949 68.9457 31.6162 68.9052 31.6162C68.7871 31.6162 68.6801 31.6162 68.5842 31.6162C68.5251 31.6162 68.4661 31.6162 68.4071 31.6162C68.1304 31.6162 67.8629 31.6162 67.6046 31.6162C67.577 31.5871 67.577 31.5871 67.5493 31.5871C67.5087 31.5638 67.4589 31.5638 67.3999 31.5871H67.3722ZM73.1996 31.5871C72.9008 31.5871 72.5743 31.6162 72.2533 31.5871C71.9821 31.5871 71.7165 31.5871 71.4508 31.5522C71.4139 31.5522 71.3844 31.5638 71.3623 31.5871C71.3346 31.5871 71.3346 31.5871 71.3346 31.6162C71.3346 31.6356 71.3346 31.657 71.3346 31.6802C71.3162 31.8859 71.307 32.0915 71.307 32.2971C71.307 32.5182 71.307 32.7374 71.307 32.9547C71.307 32.9547 71.307 32.9644 71.307 32.9838C71.307 33.0264 71.3254 33.0478 71.3623 33.0478C71.4029 33.0478 71.4435 33.0478 71.484 33.0478C71.9747 33.0478 72.4765 33.0478 72.9893 33.0478C73.2845 33.0478 73.5796 33.0478 73.8748 33.0478C73.9965 33.0478 74.146 33.0478 74.2622 33.0769C74.3028 33.0769 74.3415 33.0769 74.3784 33.0769C75.0314 33.0769 75.6918 33.0769 76.3596 33.0769C76.4002 33.0769 76.45 33.0769 76.509 33.0769C76.568 33.0769 76.5976 33.1079 76.5976 33.17C76.5976 33.1894 76.5976 33.2204 76.5976 33.2631C76.5976 33.5967 76.5976 33.9284 76.5976 34.2582C76.5976 34.3009 76.5883 34.3416 76.5699 34.3804C76.5699 34.4153 76.5699 34.4153 76.509 34.4153C76.4684 34.4153 76.4297 34.4153 76.3928 34.4153C74.5592 34.4153 72.7255 34.4153 70.8919 34.4153C70.6336 34.4153 70.3772 34.4153 70.1227 34.4153C70.0821 34.4153 70.0415 34.4153 70.0009 34.4153C69.9825 34.4153 69.964 34.4037 69.9456 34.3804C69.9456 34.3416 69.9456 34.3009 69.9456 34.2582C69.9456 34.072 69.9456 33.8567 69.9456 33.6355C69.9732 33.0769 69.9732 32.5182 69.9732 31.9887C69.9732 31.43 69.9732 30.8714 69.9732 30.3127C69.9732 29.4204 69.9732 28.5281 69.9732 27.6358C69.9732 27.5738 69.9732 27.5233 69.9732 27.4845C69.9732 27.4418 69.9935 27.4205 70.0341 27.4205C70.0931 27.4205 70.1411 27.4205 70.178 27.4205C72.2514 27.4205 74.312 27.4205 76.3596 27.4205C76.4186 27.4205 76.4777 27.4205 76.5367 27.4205C76.5699 27.4205 76.5699 27.4496 76.5699 27.4845C76.5883 27.5039 76.5976 27.535 76.5976 27.5776C76.5791 27.9074 76.5699 28.2488 76.5699 28.6018C76.5699 28.6445 76.5699 28.6852 76.5699 28.724C76.5699 28.724 76.5588 28.7357 76.5367 28.7589C76.5367 28.7589 76.5275 28.7589 76.509 28.7589C76.4684 28.7589 76.4297 28.7589 76.3928 28.7589C74.7141 28.7589 73.0484 28.7589 71.3955 28.7589C71.3734 28.7589 71.3531 28.7686 71.3346 28.788C71.3346 29.0169 71.3346 29.2439 71.3346 29.4689C71.3162 29.6784 71.307 29.8976 71.307 30.1265C71.307 30.1653 71.307 30.2157 71.307 30.2778C71.3254 30.3011 71.3438 30.3224 71.3623 30.3418C71.4213 30.3418 71.4804 30.3418 71.5394 30.3418C73.0779 30.3418 74.6256 30.3418 76.1825 30.3418C76.2231 30.3418 76.2729 30.3418 76.3319 30.3418C76.3596 30.3418 76.3928 30.3709 76.3928 30.3709C76.3928 30.4136 76.3928 30.4446 76.3928 30.464C76.3928 30.817 76.402 31.1701 76.4205 31.5231C76.4205 31.5425 76.4112 31.5638 76.3928 31.5871C76.3928 31.6259 76.3817 31.6453 76.3596 31.6453C76.3227 31.6453 76.284 31.6453 76.2434 31.6453C75.8671 31.6453 75.4926 31.6356 75.12 31.6162C75.0203 31.6162 74.9207 31.6162 74.8211 31.6162C74.6071 31.6162 74.3821 31.6162 74.146 31.6162C73.8877 31.6162 73.6202 31.6065 73.3435 31.5871C73.3066 31.5445 73.2586 31.5445 73.1996 31.5871Z" fill="#29BDEF"/>
<path fill-rule="evenodd" clip-rule="evenodd" d="M58.3793 32.4252C58.1247 32.4252 57.8683 32.4349 57.61 32.4543C57.4735 32.4543 57.3462 32.4543 57.2282 32.4543C56.7744 32.4543 56.3206 32.4659 55.8668 32.4892C55.8078 32.4892 55.7487 32.4892 55.6897 32.4892C55.6288 32.4892 55.568 32.5183 55.568 32.5823C55.568 32.6444 55.568 32.6948 55.568 32.7336C55.568 33.2108 55.568 33.688 55.568 34.1651C55.568 34.2272 55.568 34.2893 55.568 34.3514C55.568 34.3805 55.5403 34.4154 55.4794 34.4154C55.461 34.4154 55.4425 34.4154 55.4241 34.4154C55.1068 34.4154 54.8006 34.4154 54.5054 34.4154C54.487 34.4154 54.4574 34.4154 54.4169 34.4154C54.3892 34.4154 54.356 34.3805 54.356 34.3514C54.356 34.2893 54.356 34.2369 54.356 34.1942C54.356 33.2825 54.356 32.3709 54.356 31.4592C54.356 30.2371 54.356 29.0151 54.356 27.793C54.356 27.7115 54.3671 27.6281 54.3892 27.5428C54.3892 27.504 54.3984 27.4729 54.4169 27.4497C54.4169 27.4303 54.4372 27.4109 54.4777 27.3915C54.5737 27.3915 54.6807 27.3915 54.7987 27.3915C55.057 27.3915 55.3134 27.3915 55.568 27.3915C57.2651 27.3915 58.9511 27.3915 60.6261 27.3915C60.7257 27.3915 60.8346 27.3915 60.9526 27.3915C61.1297 27.4206 61.3068 27.5137 61.423 27.6708C61.5042 27.7717 61.5632 27.8842 61.6001 28.0083C61.6407 28.1325 61.6721 28.2566 61.6942 28.3808C61.7127 28.404 61.7219 28.4254 61.7219 28.4448C61.7219 28.567 61.7219 28.695 61.6942 28.8521C61.6942 28.9763 61.6942 29.1004 61.6942 29.2246C61.6942 29.6358 61.6831 30.0393 61.661 30.435C61.661 30.6212 61.661 30.8074 61.661 30.9936C61.6333 31.337 61.5116 31.6163 61.2459 31.8316C61.2459 31.8549 61.2367 31.8665 61.2183 31.8665C61.2183 31.8956 61.2183 31.9247 61.2183 31.9247C61.3954 31.9596 61.4839 32.0818 61.6001 32.204C61.6001 32.2273 61.6112 32.2583 61.6333 32.2971C61.6924 32.3825 61.7219 32.4872 61.7219 32.6114C61.7219 32.9528 61.7219 33.2942 61.7219 33.6356C61.7034 33.8645 61.6942 34.0934 61.6942 34.3223C61.6942 34.3843 61.6536 34.4154 61.5725 34.4154C61.554 34.4154 61.5245 34.4154 61.4839 34.4154C61.1482 34.4154 60.8124 34.4154 60.4767 34.4154C60.4398 34.4154 60.4103 34.4154 60.3882 34.4154C60.3697 34.4154 60.3513 34.4154 60.3328 34.4154C60.2996 34.3805 60.2719 34.3514 60.2719 34.3223C60.2719 34.2796 60.2719 34.2485 60.2719 34.2292C60.2719 34.0003 60.2719 33.7714 60.2719 33.5425C60.2719 33.3563 60.2443 33.1409 60.2443 32.9547C60.2443 32.9121 60.2332 32.8694 60.2111 32.8267C60.0746 32.7258 59.9473 32.6133 59.8292 32.4892C59.7886 32.4659 59.7499 32.4446 59.713 32.4252C59.6503 32.4252 59.5802 32.4252 59.5027 32.4252C59.285 32.4252 59.0581 32.4252 58.822 32.4252C58.763 32.4252 58.7039 32.4252 58.6449 32.4252C58.6172 32.3903 58.5564 32.3903 58.4955 32.3903C58.4402 32.3903 58.407 32.3903 58.3793 32.4252ZM58.4955 31.273C58.9493 31.273 59.3939 31.273 59.8292 31.273C59.8882 31.273 59.9381 31.273 59.9786 31.273C60.1742 31.2536 60.3015 31.1507 60.3605 30.9645C60.3789 30.8792 60.3882 30.7958 60.3882 30.7143C60.3882 30.2798 60.3992 29.8453 60.4214 29.4108C60.4214 29.3681 60.4214 29.3157 60.4214 29.2537C60.3992 29.1489 60.3697 29.0558 60.3328 28.9743C60.1834 28.759 60.0063 28.631 59.7407 28.631C59.4455 28.631 59.1596 28.631 58.8829 28.631C58.8239 28.631 58.7648 28.631 58.7058 28.631C58.6468 28.6116 58.5877 28.6019 58.5287 28.6019C57.6617 28.6019 56.8039 28.6019 55.9553 28.6019C55.9148 28.6019 55.8742 28.6019 55.8336 28.6019C55.745 28.6019 55.6897 28.6659 55.6897 28.759C55.6676 28.8211 55.6565 28.8832 55.6565 28.9452C55.6565 29.469 55.6565 29.9985 55.6288 30.5281C55.6288 30.7143 55.6288 30.9296 55.6288 31.1158C55.6288 31.1391 55.6288 31.1721 55.6288 31.2148C55.6473 31.2536 55.6676 31.273 55.6897 31.273C55.7266 31.2962 55.7653 31.2962 55.8059 31.273C55.924 31.2962 56.042 31.3079 56.1601 31.3079C56.4368 31.3079 56.7135 31.3079 56.9902 31.3079C57.0087 31.3079 57.0179 31.3079 57.0179 31.3079C57.0769 31.2846 57.147 31.273 57.2282 31.273C57.6598 31.273 58.0823 31.273 58.4955 31.273Z" fill="#29BDEF"/>
<path d="M35.4293 24.8076C35.4293 24.7882 35.4201 24.7669 35.4017 24.7436C35.4017 24.7048 35.4017 24.6641 35.4017 24.6214C35.4017 24.0201 35.4017 23.4188 35.4017 22.8174C35.4017 22.7786 35.4017 22.7379 35.4017 22.6952C35.4201 22.6758 35.4293 22.6545 35.4293 22.6312C35.4515 22.6545 35.4626 22.6758 35.4626 22.6952C35.4626 22.7146 35.4626 22.7457 35.4626 22.7883C35.4626 23.4091 35.4626 24.0298 35.4626 24.6505C35.4626 24.6932 35.4626 24.7242 35.4626 24.7436C35.4626 24.7669 35.4515 24.7882 35.4293 24.8076ZM13.8131 32.5473C13.7947 32.5279 13.7855 32.5085 13.7855 32.4891C13.7855 32.4658 13.7855 32.4445 13.7855 32.4251C13.7855 32.1535 13.7855 31.8742 13.7855 31.5871C13.7855 31.5522 13.7855 31.5231 13.8131 31.494C13.8131 31.5134 13.8131 31.5328 13.8131 31.5522C13.8353 31.5755 13.8463 31.5968 13.8463 31.6162C13.8463 31.8839 13.8463 32.1535 13.8463 32.4251C13.8463 32.4891 13.8131 32.5182 13.8131 32.5473ZM43.4427 30.0916C43.4243 30.0722 43.4151 30.0411 43.4151 29.9985C43.4151 29.917 43.4151 29.8239 43.4151 29.7191C43.4151 29.595 43.4151 29.4708 43.4151 29.3467C43.4151 29.304 43.4243 29.273 43.4427 29.2536C43.4759 29.2827 43.4759 29.3176 43.4759 29.3467C43.4759 29.5135 43.4759 29.6784 43.4759 29.8413C43.4759 29.9073 43.4759 29.9713 43.4759 30.0334C43.4759 30.0528 43.4649 30.0722 43.4427 30.0916ZM38.534 27.4496C38.5063 27.4496 38.5063 27.4845 38.5063 27.4845C38.3477 27.4845 38.1909 27.4845 38.0359 27.4845C38.0027 27.4845 38.0027 27.4496 37.975 27.4496C38.0027 27.4496 38.0027 27.4205 38.0359 27.4205C38.1909 27.4205 38.3384 27.4205 38.4786 27.4205C38.5063 27.4205 38.5063 27.4205 38.534 27.4496ZM3.5529 27.5136L3.52523 27.5427C3.44406 27.5427 3.36474 27.5427 3.28726 27.5427L3.25406 27.5136L3.28726 27.4845C3.36474 27.4845 3.44406 27.4845 3.52523 27.4845L3.5529 27.5136ZM58.3793 32.4193C58.407 32.3902 58.4346 32.3902 58.4955 32.3902C58.5564 32.3902 58.6117 32.3902 58.6449 32.4193L58.6117 32.4542C58.5527 32.4542 58.4937 32.4542 58.4346 32.4542C58.407 32.4542 58.407 32.4542 58.3793 32.4193ZM41.5833 27.4205C41.5833 27.4205 41.5833 27.4205 41.5501 27.4205C41.491 27.4399 41.4412 27.4399 41.4006 27.4205C41.373 27.4205 41.373 27.4205 41.3453 27.4205C41.373 27.3856 41.373 27.3856 41.4006 27.3856C41.4412 27.3856 41.491 27.3856 41.5501 27.3856C41.5501 27.3856 41.5833 27.3856 41.5833 27.4205ZM67.3667 31.5813H67.3999C67.4589 31.5619 67.5069 31.5619 67.5438 31.5813C67.577 31.5813 67.577 31.5813 67.6046 31.6162C67.5862 31.6162 67.5659 31.6162 67.5438 31.6162C67.5069 31.6162 67.4589 31.6162 67.3999 31.6162C67.3999 31.6162 67.3667 31.6162 67.3667 31.5813ZM73.1941 31.5813C73.2531 31.5425 73.3029 31.5425 73.3435 31.5813C73.3029 31.624 73.2531 31.624 73.1941 31.5813Z" fill="#83C8EB"/>
<path d="M51.4008 24.9939C51.4284 24.9648 51.4284 24.9648 51.4616 24.9648C51.6572 24.9648 51.8527 24.9648 52.0483 24.9648C52.0815 24.9648 52.1091 24.9648 52.1091 24.9939C52.1091 24.9939 52.0815 25.0288 52.0483 25.0288C51.8527 25.0288 51.6572 25.0288 51.4616 25.0288C51.4284 25.0288 51.4284 24.9939 51.4008 24.9939ZM69.9732 25.087C70.0009 25.087 70.0009 25.0579 70.0286 25.0579C70.2278 25.0579 70.4362 25.0676 70.6539 25.087H70.6816C70.6816 25.1219 70.6539 25.1219 70.6207 25.1219C70.4252 25.1219 70.2278 25.1219 70.0286 25.1219C70.0009 25.1219 70.0009 25.1219 69.9732 25.087ZM63.7916 25.0579C63.7916 25.0579 63.8193 25.0288 63.8525 25.0288C64.048 25.0288 64.2436 25.0288 64.4391 25.0288C64.4723 25.0288 64.4723 25.0579 64.5 25.0579C64.4723 25.0579 64.4723 25.087 64.4391 25.087C64.2436 25.087 64.048 25.087 63.8525 25.087C63.8193 25.087 63.7916 25.0579 63.7916 25.0579ZM57.5824 25.0288C57.61 25.0288 57.6377 24.9939 57.6377 24.9939C57.8554 24.9939 58.0638 24.9939 58.2631 24.9939C58.2631 24.9939 58.2907 25.0288 58.3184 25.0288C58.2907 25.0288 58.2631 25.0579 58.2631 25.0579C58.0638 25.0579 57.8554 25.0579 57.6377 25.0579C57.6377 25.0579 57.61 25.0288 57.5824 25.0288ZM76.2102 25.1219H76.2434C76.4389 25.1219 76.6344 25.1219 76.83 25.1219C76.8632 25.1219 76.8632 25.1219 76.8909 25.1219C76.8632 25.151 76.83 25.151 76.83 25.151C76.6344 25.151 76.4481 25.151 76.271 25.151C76.2434 25.151 76.2102 25.151 76.2102 25.1219ZM45.518 24.9008C45.518 24.924 45.518 24.9454 45.518 24.9648C45.518 24.9648 45.5069 24.9648 45.4848 24.9648C45.4848 24.9648 45.4756 24.9648 45.4571 24.9648V24.9357C45.4756 24.9124 45.4959 24.9008 45.518 24.9008Z" fill="#83C8EB"/>
<path d="M74.7326 14.9265C74.7049 14.7694 74.7049 14.6123 74.7049 14.4551C74.6717 14.362 74.7049 14.3038 74.7049 14.2107C74.6828 14.0245 74.6717 13.8266 74.6717 13.6172C74.6717 13.4659 74.6717 13.3378 74.6717 13.1807C74.6533 13.1186 74.644 13.0682 74.644 13.0294C74.644 12.8005 74.644 12.5716 74.644 12.3427C74.644 12.1914 74.644 12.0634 74.6164 11.9063C74.6164 11.8675 74.6164 11.8171 74.6164 11.755C74.6164 11.5261 74.6164 11.2972 74.6164 11.0683C74.6164 10.9461 74.6164 10.789 74.5831 10.6668C74.5831 10.6047 74.5831 10.5523 74.5831 10.5097C74.5831 10.242 74.5831 9.97234 74.5831 9.70077C74.5831 9.68137 74.5831 9.65033 74.5831 9.60766C74.5647 9.56886 74.5758 9.52813 74.6164 9.48545C74.6348 9.46218 74.6533 9.44084 74.6717 9.42144C75.0665 9.00633 75.4612 8.59122 75.856 8.17611C75.8744 8.15672 75.8947 8.13732 75.9169 8.11792L75.9445 8.14702C75.9445 8.16641 75.9445 8.19745 75.9445 8.24013C75.9445 8.67657 75.9445 9.11302 75.9777 9.54947C76.0054 10.3234 75.9777 11.1323 76.0054 11.9063C76.0331 12.6861 76.0331 13.4659 76.0331 14.2398C76.0331 14.3019 76.0331 14.3543 76.0331 14.3969C76.0331 14.459 76.0442 14.5308 76.0663 14.6123C76.0663 14.6743 76.0552 14.7267 76.0331 14.7694C75.9962 14.8508 75.9667 14.9343 75.9445 15.0196C75.7859 15.392 75.5793 15.7431 75.3247 16.0729C75.2067 16.2591 75.0683 16.4356 74.9097 16.6025C74.5555 16.9458 74.1736 17.2251 73.7254 17.4404C73.3343 17.6073 72.9414 17.6596 72.5466 17.5976C72.281 17.5685 72.0098 17.4753 71.7774 17.3182C71.5597 17.1708 71.3512 16.9943 71.152 16.7887C71.1336 16.746 71.104 16.715 71.0635 16.6956C71.0635 16.6665 71.0358 16.6665 71.0081 16.6956C70.9491 16.8197 70.879 16.9439 70.7978 17.068C70.6207 17.4016 70.4049 17.7023 70.1503 17.97C69.9511 18.1562 69.7334 18.3114 69.4973 18.4355C69.204 18.5636 68.8775 18.6567 68.551 18.6217C68.1082 18.5927 67.7264 18.4064 67.4608 18.034C67.339 17.8672 67.2394 17.7004 67.1619 17.5335C67.1619 17.5044 67.1619 17.4753 67.1896 17.4753C67.3482 17.4521 67.5069 17.4307 67.6655 17.4113C68.1378 17.3299 68.5916 17.1844 69.0269 16.9749C69.3626 16.8313 69.6873 16.6548 70.0009 16.4453C70.237 16.2591 70.4639 16.0516 70.6816 15.8227C71.0764 15.4114 71.3826 14.9246 71.6003 14.362C71.6003 14.3426 71.6095 14.3116 71.6279 14.2689C71.6556 14.1758 71.7442 14.1176 71.8327 14.0536C71.8936 14.0536 71.9821 14.0536 72.0098 14.1176C72.0504 14.1564 72.0707 14.2068 72.0707 14.2689C72.0891 14.3543 72.0983 14.4377 72.0983 14.5191C72.1315 14.8625 72.2201 15.1709 72.3695 15.4851C72.4064 15.586 72.4747 15.6888 72.5743 15.7936C72.779 16.0147 73.0447 16.0729 73.3712 16.0438C73.5483 16.0244 73.7161 15.9623 73.8748 15.8576C74.1736 15.7296 74.4061 15.5433 74.6717 15.3571C74.7123 15.3377 74.7326 15.3067 74.7326 15.264C74.7326 15.1399 74.7326 15.0274 74.7326 14.9265ZM78.3408 8.33323C78.3703 8.48841 78.3703 8.6436 78.3408 8.79878C78.3408 8.84145 78.3408 8.89383 78.3408 8.9559C78.3408 9.53783 78.3316 10.1178 78.3131 10.6959C78.3131 10.82 78.3131 10.9442 78.3131 11.0683C78.291 11.6696 78.2799 12.2613 78.2799 12.8432C78.2799 12.9945 78.2799 13.1225 78.2799 13.2447C78.2615 13.7646 78.2523 14.2728 78.2523 14.7694C78.2523 15.0371 78.243 15.3067 78.2246 15.5783C78.2246 15.6171 78.2135 15.6481 78.1914 15.6714C78.1324 15.7528 78.0733 15.8362 78.0143 15.9216C77.7782 16.1893 77.5421 16.4686 77.3059 16.7596C77.2063 16.8837 77.0975 16.9962 76.9794 17.0971C76.9794 17.0971 76.9702 17.0971 76.9517 17.0971C76.9517 17.035 76.9517 16.9729 76.9517 16.9109C76.9517 15.2349 76.9517 13.557 76.9517 11.8772C76.9517 11.7201 76.9241 11.5688 76.9241 11.4116C76.9241 10.9151 76.9241 10.4282 76.9241 9.951C76.9241 9.90832 76.9241 9.87729 76.9241 9.85789C76.9425 9.83849 76.9517 9.81715 76.9517 9.79388C76.9702 9.77448 76.9905 9.75508 77.0126 9.73568C77.4037 9.2973 77.7966 8.86085 78.1914 8.42634C78.232 8.38755 78.2726 8.34681 78.3131 8.30414C78.3316 8.32353 78.3408 8.33323 78.3408 8.33323ZM63.8525 18.5927C63.7714 18.5927 63.692 18.5927 63.6146 18.5927C63.3766 18.5927 63.1386 18.5636 62.873 18.4995C62.5594 18.4375 62.2439 18.3444 61.9266 18.2202C61.7496 18.1581 61.5817 18.0844 61.423 17.9991C61.4046 17.9991 61.3862 17.9894 61.3677 17.97C61.3677 17.9506 61.3677 17.9409 61.3677 17.9409C61.3862 17.9409 61.3954 17.9409 61.3954 17.9409C61.6333 17.906 61.899 17.8769 62.1369 17.8478C62.6498 17.7624 63.1515 17.648 63.6422 17.5044C64.1735 17.3473 64.6771 17.1611 65.1807 16.8818C65.4759 16.715 65.7618 16.519 66.0385 16.294C66.3152 16.0845 66.5716 15.8653 66.8077 15.6365C66.9848 15.4502 67.1527 15.264 67.3113 15.0778C67.4294 14.9343 67.5475 14.7907 67.6655 14.6472C67.6655 14.6123 67.6932 14.6123 67.7264 14.6123C67.7264 14.7054 67.7264 14.7985 67.7264 14.8916C67.6932 15.2989 67.6046 15.7005 67.4608 16.0729C67.2431 16.6936 66.8981 17.2232 66.4259 17.6616C66.2672 17.8051 66.0994 17.9293 65.9223 18.034C65.546 18.259 65.142 18.4239 64.7103 18.5286C64.4115 18.5713 64.1255 18.5927 63.8525 18.5927ZM66.6306 13.3087C66.6306 13.5376 66.6306 13.7762 66.6306 14.0245C66.6306 14.0866 66.6103 14.1273 66.5698 14.1467C66.5107 14.1894 66.4425 14.2301 66.365 14.2689C65.8116 14.5832 65.26 14.8955 64.7103 15.2058C64.5517 15.3067 64.393 15.3998 64.2344 15.4851C64.2344 15.4851 64.2251 15.4948 64.2067 15.5142C64.1735 15.5142 64.1458 15.5142 64.1458 15.4851C64.1458 15.3183 64.1458 15.1631 64.1458 15.0196C64.1458 14.9575 64.1458 14.8955 64.1458 14.8334C64.1458 14.6045 64.1458 14.3756 64.1458 14.1467C64.1458 14.104 64.1458 14.0633 64.1458 14.0245C64.1643 14.0012 64.1846 13.9799 64.2067 13.9605C64.2436 13.9411 64.2823 13.9101 64.3229 13.8674C64.8173 13.5764 65.3006 13.2758 65.7729 12.9654C66.009 12.8219 66.2451 12.6764 66.4812 12.5289C66.5218 12.5095 66.5624 12.4902 66.603 12.4708H66.6306C66.6306 12.5095 66.6306 12.5406 66.6306 12.5639C66.6306 12.8122 66.6306 13.0604 66.6306 13.3087Z" fill="#29BDEF"/>
<path d="M76.9518 17.097C76.9702 17.097 76.9794 17.097 76.9794 17.097C76.9794 17.1203 76.9794 17.1319 76.9794 17.1319C76.961 17.1319 76.9518 17.1203 76.9518 17.097ZM78.3408 8.33317C78.3408 8.33317 78.3316 8.32347 78.3131 8.30408C78.3316 8.30408 78.3408 8.30408 78.3408 8.30408C78.3408 8.30408 78.3408 8.31378 78.3408 8.33317Z" fill="#83C8EB"/>
</g>
</g>
<defs>
<clipPath id="clip0_127_6968">
<rect width="86" height="38" fill="white"/>
</clipPath>
</defs>
</svg>
